<?xml version="1.0" standalone="no"?>
<!DOCTYPE svg PUBLIC "-//W3C//DTD SVG 20010904//EN"
 "http://www.w3.org/TR/2001/REC-SVG-20010904/DTD/svg10.dtd">
<svg version="1.0" xmlns="http://www.w3.org/2000/svg"
 width="500.000000pt" height="500.000000pt" viewBox="0 0 500.000000 500.000000"
 preserveAspectRatio="xMidYMid meet">

<g transform="translate(0.000000,500.000000) scale(0.100000,-0.100000)"
fill="#000000" stroke="none">
<path d="M2970 4205 c-245 -56 -702 -161 -1017 -233 -391 -90 -591 -140 -630
-158 -72 -34 -143 -106 -180 -181 l-28 -58 -3 -1198 c-2 -1142 -1 -1198 15
-1193 21 6 274 60 528 112 99 20 225 46 280 58 l100 21 3 478 2 477 40 20 c21
11 42 20 45 20 3 0 5 -220 5 -490 0 -269 4 -490 8 -490 5 0 76 13 157 30 81
16 150 30 152 30 1 0 3 195 3 434 l0 434 34 26 c19 14 37 26 40 26 3 0 6 -200
6 -445 0 -381 2 -445 14 -445 15 0 700 144 884 185 l22 5 0 1320 c0 1251 -1
1320 -17 1319 -10 0 -218 -47 -463 -104z m270 -1265 l0 -1100 -22 -5 c-13 -3
-101 -23 -196 -44 l-172 -38 2 415 3 415 75 48 c41 26 80 48 86 48 6 1 17 -14
26 -31 l15 -33 47 99 c25 55 45 100 43 102 -6 7 -200 74 -204 71 -2 -2 4 -21
12 -42 9 -20 15 -38 13 -40 -18 -16 -710 -455 -718 -455 -6 0 -10 40 -10 110
0 61 -2 110 -5 110 -3 0 -153 -82 -335 -181 l-330 -181 0 -64 c0 -45 4 -64 13
-64 6 0 38 16 70 35 32 19 62 35 68 35 6 0 8 -117 7 -312 l-3 -312 -170 -38
c-93 -20 -185 -39 -202 -43 l-33 -6 0 1033 c0 986 1 1035 19 1074 10 23 32 50
47 61 19 14 116 41 274 77 1002 231 1548 354 1563 355 16 1 17 -58 17 -1099z"/>
<path d="M2690 3571 l-155 -37 -3 -486 -2 -487 160 101 160 101 0 423 c0 233
-1 424 -2 423 -2 0 -73 -17 -158 -38z"/>
<path d="M2288 3197 l-158 -31 0 -302 0 -303 76 35 c41 19 77 34 79 34 2 0 6
-49 7 -110 l3 -110 78 52 77 51 0 358 c0 198 -1 359 -2 358 -2 0 -74 -15 -160
-32z"/>
<path d="M1900 2784 c-74 -18 -145 -36 -157 -39 -23 -5 -23 -6 -23 -205 0
-132 4 -200 10 -200 6 0 78 37 160 83 l150 82 0 158 c0 86 -1 157 -2 156 -2
-1 -64 -16 -138 -35z"/>
<path d="M3760 3543 c-19 -2 -50 -6 -67 -9 l-33 -5 0 -1013 0 -1013 -52 -11
c-29 -6 -164 -34 -300 -62 -264 -53 -455 -92 -1203 -245 -506 -104 -526 -106
-610 -65 l-49 24 -115 -24 c-64 -12 -120 -26 -124 -30 -12 -11 95 -104 150
-130 94 -44 143 -54 263 -54 120 0 99 -4 1060 199 203 43 586 122 898 186
l302 63 0 1098 0 1098 -42 -2 c-24 0 -59 -3 -78 -5z"/>
</g>
</svg>
