<?xml version="1.0" encoding="UTF-8"?>
<svg version="1.1" xmlns="http://www.w3.org/2000/svg" width="500" height="500">
    <path
        d="M0 0 C165 0 330 0 500 0 C500 165 500 330 500 500 C335 500 170 500 0 500 C0 335 0 170 0 0 Z "
        fill="#FEFEFE" transform="translate(0,0)" />
    <path
        d="M0 0 C0 87.12 0 174.24 0 264 C-4.78211412 265.36631832 -9.4210469 266.58399108 -14.265625 267.62890625 C-14.96085266 267.77939926 -15.65608032 267.92989227 -16.37237549 268.08494568 C-18.66435208 268.58012872 -20.95710493 269.07158863 -23.25 269.5625 C-24.86523481 269.90950318 -26.48046918 270.25650843 -28.09570312 270.60351562 C-32.46236004 271.54020622 -36.83002706 272.47210751 -41.19799805 273.40264893 C-44.08603867 274.01834235 -46.97370069 274.63578985 -49.86132812 275.25341797 C-54.78180995 276.30504038 -59.70359797 277.35035102 -64.62634277 278.3913269 C-66.53627812 278.79587281 -68.44586827 279.20205201 -70.35510254 279.6098938 C-73.03780699 280.18234061 -75.72181254 280.74824391 -78.40625 281.3125 C-79.20363586 281.48398056 -80.00102173 281.65546112 -80.8225708 281.83213806 C-84.69650407 282.63913305 -88.00519084 283 -92 283 C-92 253.63 -92 224.26 -92 194 C-99.22759504 197.98903695 -99.22759504 197.98903695 -99.87974548 202.90412903 C-99.91756863 204.4536111 -99.91728315 206.00431766 -99.88647461 207.55395508 C-99.89725037 208.40324585 -99.90802612 209.25253662 -99.91912842 210.12756348 C-99.94646725 212.92577457 -99.92466329 215.72131257 -99.90234375 218.51953125 C-99.91172892 220.46296357 -99.92418677 222.40638328 -99.93959045 224.34977722 C-99.97183225 229.45787771 -99.96236815 234.56508091 -99.94421387 239.67321777 C-99.93306042 244.88836508 -99.96135504 250.10328206 -99.98632812 255.31835938 C-100.02949021 265.54573311 -100.02859364 275.77259278 -100 286 C-103.62287989 286.82214641 -107.24863008 287.63089934 -110.875 288.4375 C-111.88820313 288.66759766 -112.90140625 288.89769531 -113.9453125 289.13476562 C-115.45351562 289.46831055 -115.45351562 289.46831055 -116.9921875 289.80859375 C-117.90339355 290.01282959 -118.81459961 290.21706543 -119.75341797 290.42749023 C-124.13238446 291.19968729 -128.57553652 291.55755365 -133 292 C-133.33 259.99 -133.66 227.98 -134 195 C-135.98 195.99 -137.96 196.98 -140 198 C-140.33 229.68 -140.66 261.36 -141 294 C-149.58 295.65 -158.16 297.3 -167 299 C-169.64 299.66 -172.28 300.32 -175 301 C-176.45493362 301.31859461 -177.91240148 301.62622623 -179.3737793 301.91381836 C-180.13204514 302.06415024 -180.89031097 302.21448212 -181.67155457 302.36936951 C-182.46443375 302.52462601 -183.25731293 302.67988251 -184.07421875 302.83984375 C-184.91990921 303.00746719 -185.76559967 303.17509064 -186.63691711 303.34779358 C-190.21366075 304.05668418 -193.79130052 304.76100182 -197.36889648 305.46557617 C-206.7083461 307.30741128 -216.02932622 309.15508871 -225.28442383 311.38891602 C-228.17631681 312.03967643 -231.07502917 312.52274177 -234 313 C-234.13702676 282.75714865 -234.24313586 252.51431327 -234.30639198 222.27122135 C-234.31389576 218.69660149 -234.32166173 215.12198223 -234.32958984 211.54736328 C-234.33116371 210.83575408 -234.33273757 210.12414487 -234.33435912 209.39097175 C-234.36043062 197.88533222 -234.4077178 186.37987349 -234.46291678 174.87434104 C-234.51912771 163.05888472 -234.55237413 151.24352276 -234.56453097 139.42793822 C-234.57200791 132.79533402 -234.5906644 126.16306542 -234.63438034 119.53058624 C-234.67522647 113.28265133 -234.68764441 107.03529293 -234.67864609 100.78723717 C-234.68029132 98.49918926 -234.69215388 96.21112127 -234.71523285 93.92318916 C-234.8618287 78.63538842 -233.99703967 67.3566007 -222.9609375 55.7421875 C-211.93805798 45.94895191 -196.96089558 43.60084798 -182.98828125 40.5390625 C-181.56688209 40.22334023 -180.14559453 39.90711512 -178.72441101 39.59042358 C-175.00534598 38.76292093 -171.28496742 37.94149336 -167.56420898 37.12164307 C-161.67904388 35.82359502 -155.79609218 34.51551601 -149.91274643 33.2092514 C-148.46007723 32.88678714 -147.00737167 32.56448659 -145.55463028 32.24234772 C-125.97102073 27.89938123 -106.43939748 23.33792495 -86.90594482 18.77546692 C-73.08221245 15.54863766 -59.25312468 12.34520243 -45.41802025 9.16747475 C-41.49011769 8.26521016 -37.56275931 7.36069756 -33.63647461 6.45141602 C-29.74506393 5.55027075 -25.85247021 4.65441929 -21.95897102 3.76234245 C-20.49734634 3.42651592 -19.03614759 3.08882949 -17.57540703 2.74917793 C-15.55717863 2.28025386 -13.53750042 1.81815796 -11.51733398 1.35766602 C-10.37538071 1.09454117 -9.23342743 0.83141632 -8.05686951 0.56031799 C-5 0 -5 0 0 0 Z "
        fill="#FCFCFD" transform="translate(345,69)" />
    <path
        d="M0 0 C0 87.12 0 174.24 0 264 C-4.78211412 265.36631832 -9.4210469 266.58399108 -14.265625 267.62890625 C-14.96085266 267.77939926 -15.65608032 267.92989227 -16.37237549 268.08494568 C-18.66435208 268.58012872 -20.95710493 269.07158863 -23.25 269.5625 C-24.86523481 269.90950318 -26.48046918 270.25650843 -28.09570312 270.60351562 C-32.46236004 271.54020622 -36.83002706 272.47210751 -41.19799805 273.40264893 C-44.08603867 274.01834235 -46.97370069 274.63578985 -49.86132812 275.25341797 C-54.78180995 276.30504038 -59.70359797 277.35035102 -64.62634277 278.3913269 C-66.53627812 278.79587281 -68.44586827 279.20205201 -70.35510254 279.6098938 C-73.03780699 280.18234061 -75.72181254 280.74824391 -78.40625 281.3125 C-79.20363586 281.48398056 -80.00102173 281.65546112 -80.8225708 281.83213806 C-84.69650407 282.63913305 -88.00519084 283 -92 283 C-92 253.63 -92 224.26 -92 194 C-99.22759504 197.98903695 -99.22759504 197.98903695 -99.87974548 202.90412903 C-99.91756863 204.4536111 -99.91728315 206.00431766 -99.88647461 207.55395508 C-99.89725037 208.40324585 -99.90802612 209.25253662 -99.91912842 210.12756348 C-99.94646725 212.92577457 -99.92466329 215.72131257 -99.90234375 218.51953125 C-99.91172892 220.46296357 -99.92418677 222.40638328 -99.93959045 224.34977722 C-99.97183225 229.45787771 -99.96236815 234.56508091 -99.94421387 239.67321777 C-99.93306042 244.88836508 -99.96135504 250.10328206 -99.98632812 255.31835938 C-100.02949021 265.54573311 -100.02859364 275.77259278 -100 286 C-103.62287989 286.82214641 -107.24863008 287.63089934 -110.875 288.4375 C-111.88820313 288.66759766 -112.90140625 288.89769531 -113.9453125 289.13476562 C-115.45351562 289.46831055 -115.45351562 289.46831055 -116.9921875 289.80859375 C-117.90339355 290.01282959 -118.81459961 290.21706543 -119.75341797 290.42749023 C-124.13238446 291.19968729 -128.57553652 291.55755365 -133 292 C-133.33 259.99 -133.66 227.98 -134 195 C-135.98 195.99 -137.96 196.98 -140 198 C-140.33 229.68 -140.66 261.36 -141 294 C-149.58 295.65 -158.16 297.3 -167 299 C-169.64 299.66 -172.28 300.32 -175 301 C-176.45493362 301.31859461 -177.91240148 301.62622623 -179.3737793 301.91381836 C-180.13204514 302.06415024 -180.89031097 302.21448212 -181.67155457 302.36936951 C-182.46443375 302.52462601 -183.25731293 302.67988251 -184.07421875 302.83984375 C-184.91990921 303.00746719 -185.76559967 303.17509064 -186.63691711 303.34779358 C-190.21366075 304.05668418 -193.79130052 304.76100182 -197.36889648 305.46557617 C-206.7083461 307.30741128 -216.02932622 309.15508871 -225.28442383 311.38891602 C-228.17631681 312.03967643 -231.07502917 312.52274177 -234 313 C-234.13702676 282.75714865 -234.24313586 252.51431327 -234.30639198 222.27122135 C-234.31389576 218.69660149 -234.32166173 215.12198223 -234.32958984 211.54736328 C-234.33116371 210.83575408 -234.33273757 210.12414487 -234.33435912 209.39097175 C-234.36043062 197.88533222 -234.4077178 186.37987349 -234.46291678 174.87434104 C-234.51912771 163.05888472 -234.55237413 151.24352276 -234.56453097 139.42793822 C-234.57200791 132.79533402 -234.5906644 126.16306542 -234.63438034 119.53058624 C-234.67522647 113.28265133 -234.68764441 107.03529293 -234.67864609 100.78723717 C-234.68029132 98.49918926 -234.69215388 96.21112127 -234.71523285 93.92318916 C-234.8618287 78.63538842 -233.99703967 67.3566007 -222.9609375 55.7421875 C-211.93805798 45.94895191 -196.96089558 43.60084798 -182.98828125 40.5390625 C-181.56688209 40.22334023 -180.14559453 39.90711512 -178.72441101 39.59042358 C-175.00534598 38.76292093 -171.28496742 37.94149336 -167.56420898 37.12164307 C-161.67904388 35.82359502 -155.79609218 34.51551601 -149.91274643 33.2092514 C-148.46007723 32.88678714 -147.00737167 32.56448659 -145.55463028 32.24234772 C-125.97102073 27.89938123 -106.43939748 23.33792495 -86.90594482 18.77546692 C-73.08221245 15.54863766 -59.25312468 12.34520243 -45.41802025 9.16747475 C-41.49011769 8.26521016 -37.56275931 7.36069756 -33.63647461 6.45141602 C-29.74506393 5.55027075 -25.85247021 4.65441929 -21.95897102 3.76234245 C-20.49734634 3.42651592 -19.03614759 3.08882949 -17.57540703 2.74917793 C-15.55717863 2.28025386 -13.53750042 1.81815796 -11.51733398 1.35766602 C-10.37538071 1.09454117 -9.23342743 0.83141632 -8.05686951 0.56031799 C-5 0 -5 0 0 0 Z M-28.26953125 27.84765625 C-29.14077637 28.03666504 -30.01202148 28.22567383 -30.90966797 28.42041016 C-31.86760254 28.6322998 -32.82553711 28.84418945 -33.8125 29.0625 C-34.83746582 29.28728027 -35.86243164 29.51206055 -36.91845703 29.74365234 C-46.00176368 31.74993976 -55.05627944 33.87421097 -64.11132812 36.00366211 C-75.99388826 38.79058792 -87.90191647 41.4607812 -99.8125 44.125 C-117.3920792 48.05904239 -134.96442292 52.02367623 -152.52841187 56.02679443 C-154.97040439 56.58336103 -157.41247932 57.13956623 -159.85464478 57.69537354 C-165.4838974 58.9768191 -171.11166052 60.26399903 -176.73632812 61.56542969 C-180.85839521 62.51761985 -184.98614128 63.4320002 -189.12304688 64.31738281 C-191.01433646 64.73496473 -192.90561321 65.15260475 -194.796875 65.5703125 C-195.6455011 65.74335907 -196.4941272 65.91640564 -197.36846924 66.09469604 C-202.85911005 67.33087821 -206.07431041 68.90774377 -210 73 C-213.11736498 77.99997568 -213.42369021 81.91592041 -213.36076355 87.61801147 C-213.36332682 88.47251691 -213.3658901 89.32702235 -213.36853105 90.2074219 C-213.37346247 93.06344222 -213.35698659 95.91893093 -213.34057617 98.77490234 C-213.33972976 100.82502225 -213.34020531 102.87514307 -213.34190369 104.92526245 C-213.34276451 110.48679297 -213.3251244 116.04812943 -213.30418181 121.60961485 C-213.28542974 127.42321508 -213.28366573 133.23681975 -213.28010559 139.05044556 C-213.27078083 150.05757129 -213.24616113 161.06460764 -213.21605712 172.07169402 C-213.1825266 184.60362568 -213.16603048 197.13556161 -213.15097082 209.66752696 C-213.11961202 235.44506753 -213.06684305 261.22252876 -213 287 C-210.95523441 286.69996728 -208.9110816 286.39575694 -206.8671875 286.08984375 C-205.72878418 285.920896 -204.59038086 285.75194824 -203.41748047 285.57788086 C-200.26303297 285.04447771 -197.22069368 284.36374144 -194.125 283.5625 C-187.14452764 281.78176726 -180.06412956 280.41282591 -173 279 C-173 258.54 -173 238.08 -173 217 C-178.27622517 218.05524503 -181.3511047 219.83335895 -185.82104492 222.63452148 C-186.5401001 223.08512939 -187.25915527 223.5357373 -188 224 C-188.3288519 219.12766599 -188.24981836 214.73981582 -187 210 C-183.67683662 206.50848918 -179.75092866 204.85241256 -175.375 202.9375 C-173.59223082 202.07269917 -171.80949198 201.20781351 -170.03007507 200.33613586 C-168.21017925 199.45085598 -166.38089879 198.58748289 -164.55029297 197.72460938 C-159.2009859 195.12610125 -154.0797626 192.16946074 -148.9375 189.1875 C-139.7222702 183.92619588 -130.40639917 178.91130576 -121 174 C-121 181.59 -121 189.18 -121 197 C-117.11647718 195.05823859 -113.4809576 192.87058793 -109.8125 190.5625 C-109.1105249 190.12220459 -108.4085498 189.68190918 -107.68530273 189.22827148 C-99.73983457 184.23007404 -91.86895613 179.11743426 -84 174 C-72.05928607 166.23784091 -60.05554814 158.58268834 -48 151 C-48.99 148.03 -49.98 145.06 -51 142 C-49.89140625 142.42152344 -48.7828125 142.84304687 -47.640625 143.27734375 C-46.17712752 143.830846 -44.7135834 144.38422496 -43.25 144.9375 C-42.52039063 145.21529297 -41.79078125 145.49308594 -41.0390625 145.77929688 C-40.33007812 146.04677734 -39.62109375 146.31425781 -38.890625 146.58984375 C-38.24125977 146.83597412 -37.59189453 147.08210449 -36.92285156 147.33569336 C-34.967424 148.01125435 -33.01334243 148.52800046 -31 149 C-32.39878802 153.46797338 -34.13630772 157.63822079 -36.125 161.875 C-36.66382813 163.02742187 -37.20265625 164.17984375 -37.7578125 165.3671875 C-38.16773438 166.23601562 -38.57765625 167.10484375 -39 168 C-39.99 166.35 -40.98 164.7 -42 163 C-46.08589287 163.64567196 -49.25857167 165.82796567 -52.6875 168 C-53.28111328 168.36867187 -53.87472656 168.73734375 -54.48632812 169.1171875 C-57.39892787 170.85337793 -57.39892787 170.85337793 -60 173 C-60.09506052 175.55589888 -60.12556761 178.08467972 -60.11352539 180.64086914 C-60.11374443 181.84077736 -60.11374443 181.84077736 -60.1139679 183.06492615 C-60.11326855 185.72169665 -60.10547518 188.37839793 -60.09765625 191.03515625 C-60.09579215 192.87218691 -60.09436821 194.70921806 -60.09336853 196.54624939 C-60.08954275 201.39109662 -60.07971196 206.23591408 -60.06866455 211.08074951 C-60.05845172 216.02062578 -60.05387119 220.96050685 -60.04882812 225.90039062 C-60.03808974 235.60027353 -60.0210126 245.30013429 -60 255 C-53.14107094 254.30344869 -53.14107094 254.30344869 -46.3515625 253.1328125 C-45.57296875 252.96910156 -44.794375 252.80539062 -43.9921875 252.63671875 C-43.21101562 252.46785156 -42.42984375 252.29898438 -41.625 252.125 C-40.8515625 251.96386719 -40.078125 251.80273438 -39.28125 251.63671875 C-33.09590144 250.32003564 -27.12608994 248.6707518 -21 247 C-21 174.4 -21 101.8 -21 27 C-23.6600882 27 -25.69342842 27.28637019 -28.26953125 27.84765625 Z "
        fill="#122A66" transform="translate(345,69)" />
    <path
        d="M0 0 C0 72.6 0 145.2 0 220 C-48.10029412 230.30720588 -48.10029412 230.30720588 -64.5 233.625 C-66.3398953 233.99909551 -68.17973752 234.37345218 -70.01953125 234.74804688 C-72.7795507 235.30998539 -75.53959325 235.8718055 -78.29980469 236.43280029 C-86.5362959 238.10693184 -94.76855108 239.80128045 -103 241.5 C-112.0632904 243.36961059 -121.12795591 245.23223149 -130.1953125 247.08203125 C-149.26103779 250.97176236 -168.32376087 254.8759729 -187.37689209 258.82699585 C-189.53477365 259.27410638 -191.69285375 259.72025986 -193.85113525 260.16543579 C-196.851848 260.78465963 -199.85179558 261.40746265 -202.8515625 262.03125 C-203.75144897 262.21624557 -204.65133545 262.40124115 -205.57849121 262.59184265 C-206.39901978 262.76327286 -207.21954834 262.93470306 -208.06494141 263.11132812 C-209.13828232 263.33375183 -209.13828232 263.33375183 -210.23330688 263.56066895 C-212.09027934 263.95424437 -212.09027934 263.95424437 -214 265 C-231.25569471 266.4269839 -247.96955083 265.02090866 -261.75390625 253.5390625 C-262.89429767 252.41569185 -263.95546265 251.21301111 -265 250 C-265.598125 249.443125 -266.19625 248.88625 -266.8125 248.3125 C-268 247 -268 247 -268 245 C-264.62678224 244.32409812 -261.25117758 243.66094482 -257.875 243 C-256.92367187 242.80921875 -255.97234375 242.6184375 -254.9921875 242.421875 C-242.30908328 239.95571585 -242.30908328 239.95571585 -236 244 C-229.01434163 246.07681735 -221.79315484 244.99874921 -214.80078125 243.57421875 C-214.04387497 243.42596146 -213.28696869 243.27770416 -212.50712585 243.12495422 C-210.9139673 242.81150751 -209.32150658 242.4944946 -207.72973633 242.17407227 C-205.33751954 241.69253625 -202.94347742 241.22122654 -200.54882812 240.75195312 C-192.65150027 239.19406221 -184.80037785 237.51365017 -176.96459961 235.66772461 C-171.28185022 234.38778394 -165.53988901 233.43944147 -159.80078125 232.45117188 C-154.75153214 231.56201839 -149.93069137 230.42107262 -145 229 C-141.05400219 228.12496001 -137.09070124 227.34270178 -133.125 226.5625 C-132.01890381 226.34295654 -130.91280762 226.12341309 -129.77319336 225.8972168 C-122.13670518 224.39209408 -114.48960211 222.97998451 -106.81640625 221.67578125 C-98.23813384 220.15680364 -89.74692197 218.29116975 -81.25 216.375 C-70.2602216 213.92132952 -59.25975139 211.51867066 -48.2467041 209.17169189 C-46.54840543 208.80890484 -44.85056305 208.44397474 -43.15319824 208.07684326 C-40.75310042 207.55828758 -38.35143165 207.04771751 -35.94921875 206.5390625 C-34.87733559 206.30512787 -34.87733559 206.30512787 -33.78379822 206.06646729 C-29.65908174 205.20368402 -26.30069489 205 -22 205 C-22 138.01 -22 71.02 -22 2 C-15.77029886 -1.11485057 -6.4698913 0 0 0 Z "
        fill="#122A66" transform="translate(388,145)" />
    <path
        d="M0 0 C0.39516311 10.89131094 0.69655486 21.78089995 0.88080692 32.67793751 C0.96928167 37.73929515 1.08906329 42.79572687 1.2824707 47.85424805 C1.46822449 52.74360937 1.56901905 57.62826112 1.61291313 62.52087975 C1.64415309 64.3797801 1.70517846 66.23844231 1.79741096 68.09531593 C2.47058391 82.21941053 2.47058391 82.21941053 -1.62080765 86.82418442 C-5.65282538 90.17167127 -10.09408412 92.57551109 -14.78627205 94.86630821 C-18.36813671 96.70064858 -21.66373529 98.94622517 -25 101.1875 C-30.82773814 105 -30.82773814 105 -32 105 C-32 72.66 -32 40.32 -32 7 C-2 0 -2 0 0 0 Z "
        fill="#102864" transform="translate(285,139)" />
    <path
        d="M0 0 C0.34883408 9.21396565 0.6146758 18.42563473 0.77718258 27.64478111 C0.85521883 31.92686777 0.96084362 36.20441443 1.1315918 40.48388672 C1.29561391 44.62107739 1.38445084 48.75393078 1.42315865 52.89412308 C1.45070301 54.46630838 1.50451026 56.03827686 1.58595085 57.60859299 C1.84336419 62.78173381 1.77899738 67.09132034 0 72 C-4.11703361 76.54409422 -9.53648598 79.37373505 -15 82 C-15.33 82 -15.66 82 -16 82 C-16 74.74 -16 67.48 -16 60 C-21.28 62.31 -26.56 64.62 -32 67 C-32 46.87 -32 26.74 -32 6 C-3 0 -3 0 0 0 Z "
        fill="#112965" transform="translate(245,177)" />
    <path
        d="M0 0 C0 10.56 0 21.12 0 32 C-11.625 38.25 -11.625 38.25 -15.25634766 40.19628906 C-21.58651644 43.58551135 -21.58651644 43.58551135 -27.6484375 47.421875 C-30 49 -30 49 -32 49 C-32 35.47 -32 21.94 -32 8 C-21.88402626 4.62800875 -21.88402626 4.62800875 -18.25390625 3.8671875 C-17.47982422 3.70089844 -16.70574219 3.53460938 -15.90820312 3.36328125 C-15.13412109 3.20214844 -14.36003906 3.04101562 -13.5625 2.875 C-9.06763389 1.92757046 -4.48540775 0 0 0 Z "
        fill="#152D68" transform="translate(204,218)" />
    <path
        d="M0 0 C0.33 6.93 0.66 13.86 1 21 C4.96 18.36 8.92 15.72 13 13 C13.66 13.33 14.32 13.66 15 14 C12.63028386 18.91367611 9.50657042 21.00727169 5 23.75 C4.3709375 24.14832031 3.741875 24.54664063 3.09375 24.95703125 C0.42483593 26.62510254 -2.00426025 28.00142008 -5 29 C-5 21.41 -5 13.82 -5 6 C-6.98 6.66 -8.96 7.32 -11 8 C-11 6.68 -11 5.36 -11 4 C-9.5437455 3.32880451 -8.08492133 2.66318193 -6.625 2 C-5.81289062 1.62875 -5.00078125 1.2575 -4.1640625 0.875 C-2 0 -2 0 0 0 Z "
        fill="#DADEE7" transform="translate(229,237)" />
    <path
        d="M0 0 C0.66 0.33 1.32 0.66 2 1 C2 1.99 2 2.98 2 4 C-1.9310756 6.12094711 -5.86380582 8.23878353 -9.7980957 10.35375977 C-11.13611973 11.07361053 -12.47368876 11.79430767 -13.81079102 12.51586914 C-15.73334522 13.55317744 -17.65751784 14.5874259 -19.58203125 15.62109375 C-20.73936768 16.2442749 -21.8967041 16.86745605 -23.08911133 17.50952148 C-26 19 -26 19 -29 20 C-28.06229589 16.76837407 -27.37864239 15.27481546 -24.61743164 13.27075195 C-23.64153076 12.76503662 -22.66562988 12.25932129 -21.66015625 11.73828125 C-20.59732422 11.17689453 -19.53449219 10.61550781 -18.43945312 10.03710938 C-17.32505859 9.46798828 -16.21066406 8.89886719 -15.0625 8.3125 C-12.86544398 7.16360419 -10.66880999 6.01390086 -8.47265625 4.86328125 C-7.00711304 4.10978394 -7.00711304 4.10978394 -5.51196289 3.34106445 C-2.86477127 1.98024372 -2.86477127 1.98024372 0 0 Z "
        fill="#DFE3EA" transform="translate(202,250)" />
    <path
        d="M0 0 C0.66 0.33 1.32 0.66 2 1 C0.57384596 5.27846211 -2.61187824 6.48888539 -6.3125 8.6875 C-7.76785318 9.57269794 -9.22227077 10.4594358 -10.67578125 11.34765625 C-11.4023291 11.78996582 -12.12887695 12.23227539 -12.87744141 12.68798828 C-17.67518507 15.65360531 -22.33222921 18.83510995 -27 22 C-27.66 21.34 -28.32 20.68 -29 20 C-24.8928712 15.44662381 -20.32526614 12.53501379 -15.0625 9.4375 C-13.49022246 8.49980864 -11.91859433 7.56102741 -10.34765625 6.62109375 C-9.60660645 6.17878418 -8.86555664 5.73647461 -8.10205078 5.28076172 C-5.34330851 3.59988344 -2.66839677 1.82033488 0 0 Z "
        fill="#E2E5EC" transform="translate(282,225)" />
    <path
        d="M0 0 C0.66 0.33 1.32 0.66 2 1 C-0.12344542 5.14107131 -2.14077527 7.05264074 -6.1875 9.3125 C-7.08855469 9.82425781 -7.98960937 10.33601563 -8.91796875 10.86328125 C-9.60503906 11.23839844 -10.29210937 11.61351562 -11 12 C-11 9 -11 9 -8.875 6.5625 C-6.01773563 4.01580785 -3.23139025 2.02901248 0 0 Z "
        fill="#E5E8EE" transform="translate(242,250)" />
    <path
        d="M0 0 C0.66 0.33 1.32 0.66 2 1 C2 1.99 2 2.98 2 4 C-0.8125 5.5625 -0.8125 5.5625 -4 7 C-4.99 6.67 -5.98 6.34 -7 6 C-4.74259377 3.66475218 -2.7194239 1.81294927 0 0 Z "
        fill="#E8EAF0" transform="translate(202,250)" />
    <path
        d="M0 0 C0.66 0.33 1.32 0.66 2 1 C0.37660195 2.70884005 -1.29319053 4.37446717 -3 6 C-3.66 6 -4.32 6 -5 6 C-5 4.68 -5 3.36 -5 2 C-2.625 0.9375 -2.625 0.9375 0 0 Z "
        fill="#E3E6ED" transform="translate(223,239)" />
    <path
        d="M0 0 C0.66 0.33 1.32 0.66 2 1 C0.35 2.65 -1.3 4.3 -3 6 C-3.99 5.67 -4.98 5.34 -6 5 C-2.25 1.125 -2.25 1.125 0 0 Z "
        fill="#EEEFF4" transform="translate(188,258)" />
    <path
        d="M0 0 C0.66 0.33 1.32 0.66 2 1 C1.1875 2.9375 1.1875 2.9375 0 5 C-0.99 5.33 -1.98 5.66 -3 6 C-3.66 5.01 -4.32 4.02 -5 3 C-2.625 1.4375 -2.625 1.4375 0 0 Z "
        fill="#DADEE7" transform="translate(263,237)" />
    <path
        d="M0 0 C0 0.99 0 1.98 0 3 C-1.98 3.99 -3.96 4.98 -6 6 C-3.84615385 0 -3.84615385 0 0 0 Z "
        fill="#E9EBF1" transform="translate(275,231)" />
</svg>